<svg width="56" height="56" viewBox="0 0 56 56" fill="none" xmlns="http://www.w3.org/2000/svg">
<circle cx="28" cy="28" r="28" fill="#4888FF"/>
<circle cx="27.5" cy="28.5" r="24.5" fill="#4888FF"/>
<path d="M28.35 41.5041C30.0781 41.5089 31.79 41.1708 33.3866 40.5094C34.9831 39.848 36.4326 38.8765 37.6512 37.6512C37.8754 37.4269 38.0013 37.1228 38.0013 36.8057C38.0013 36.4886 37.8754 36.1845 37.6512 35.9603L30.0409 28.35L37.6512 20.7397C37.8754 20.5154 38.0013 20.2113 38.0013 19.8942C38.0013 19.5771 37.8754 19.273 37.6512 19.0488C36.1216 17.5191 34.2383 16.3903 32.1682 15.7623C30.0982 15.1343 27.9051 15.0265 25.7835 15.4485C23.6618 15.8705 21.6769 16.8093 20.0047 18.1816C18.3325 19.554 17.0245 21.3176 16.1967 23.3161C15.3689 25.3147 15.0467 27.4866 15.2588 29.6395C15.4708 31.7923 16.2106 33.8596 17.4124 35.6582C18.6143 37.4569 20.2412 38.9314 22.149 39.9511C24.0569 40.9708 26.1868 41.5042 28.35 41.5041ZM28.35 17.5875C30.7925 17.5804 33.1636 18.4106 35.0682 19.9397L27.5046 27.5045C27.2804 27.7288 27.1544 28.0329 27.1544 28.35C27.1544 28.6671 27.2804 28.9712 27.5046 29.1954L35.0682 36.7603C33.7249 37.8329 32.1442 38.5681 30.4584 38.9045C28.7726 39.2408 27.0308 39.1684 25.3787 38.6934C23.7266 38.2184 22.2123 37.3546 20.9626 36.1742C19.7129 34.9938 18.7641 33.5313 18.1957 31.909C17.6272 30.2867 17.4556 28.5518 17.6953 26.8496C17.9349 25.1474 18.5788 23.5273 19.5731 22.125C20.5673 20.7227 21.883 19.579 23.4101 18.7895C24.9371 18.0001 26.631 17.5879 28.35 17.5875ZM41.5042 28.35C41.5042 28.823 41.3639 29.2854 41.1011 29.6787C40.8383 30.072 40.4648 30.3786 40.0278 30.5596C39.5907 30.7406 39.1099 30.788 38.6459 30.6957C38.182 30.6034 37.7558 30.3756 37.4213 30.0411C37.0869 29.7067 36.8591 29.2805 36.7668 28.8166C36.6745 28.3526 36.7219 27.8717 36.9029 27.4347C37.0839 26.9977 37.3905 26.6242 37.7838 26.3614C38.1771 26.0986 38.6395 25.9583 39.1125 25.9583C39.7468 25.9583 40.3551 26.2103 40.8037 26.6588C41.2522 27.1073 41.5042 27.7157 41.5042 28.35ZM23.5667 22.3708C23.5667 21.8978 23.7069 21.4354 23.9697 21.0421C24.2325 20.6488 24.6061 20.3422 25.0431 20.1612C25.4801 19.9802 25.961 19.9328 26.4249 20.0251C26.8889 20.1174 27.315 20.3452 27.6495 20.6796C27.984 21.0141 28.2118 21.4403 28.3041 21.9042C28.3963 22.3681 28.349 22.849 28.168 23.2861C27.9869 23.7231 27.6804 24.0966 27.2871 24.3594C26.8938 24.6222 26.4314 24.7625 25.9583 24.7625C25.324 24.7625 24.7157 24.5105 24.2672 24.062C23.8187 23.6134 23.5667 23.0051 23.5667 22.3708Z" fill="white"/>
</svg>
